# xmcd
#
# Track frame offsets:
# 150
# 18387
# 37178
# 56594
# 74418
# 92920
# 120974
# 150472
# 168313
# 185658
# 210496
# 233284
# 254294
# 277055
# 295567
# 315489
#
# Disc length: 4797 seconds
#
# Revision: 0
# Processed by: cddbd v1.4PL0 Copyright (c) Steve Scherf et al.
# Submitted via: Audion 3.0.2 (http://www.panic.com/audion/)
#
DISCID=d712bb10
DTITLE=Varios - HIP HOP MIX
DYEAR=1900
DGENRE=
TTITLE0=Morodo-Babilonia
TTITLE1=La Puta Opepe-Desafio Total
TTITLE2=La puta Opepe-Don Simon
TTITLE3=Mucho Muchacho-Hacer dinero mas
TTITLE4=La Puta Opepe-Escupe la flema
TTITLE5=Chojin-Lola
TTITLE6=La Puta Opepe-Mallorca es Fonki
TTITLE7=Doble V-Maximo exponente
TTITLE8=Doble V-Ninguna chavala tiene dueño
TTITLE9=Doble V-Por honor
TTITLE10=Doble V-Solo quedar consuelo
TTITLE11=Doble V-Suizaragoza
TTITLE12=Doble V-Tu y tus historias
TTITLE13=Doble V-Un gran plan
TTITLE14=Doble V-Vicios y virtudes
TTITLE15=La Puta Opepe-Zafarrancho
EXTD=
EXTT0=
EXTT1=
EXTT2=
EXTT3=
EXTT4=
EXTT5=
EXTT6=
EXTT7=
EXTT8=
EXTT9=
EXTT10=
EXTT11=
EXTT12=
EXTT13=
EXTT14=
EXTT15=
PLAYORDER=
